<?xml version="1.0" encoding="UTF-8"?>
<svg version="1.1" xmlns="http://www.w3.org/2000/svg" width="96" height="96">
<path d="M0 0 C0.85501602 -0.02251831 1.71003204 -0.04503662 2.59095764 -0.0682373 C6.5302777 -0.1392241 10.46940219 -0.19683896 14.40917969 -0.23535156 C16.48200679 -0.26188686 18.55470371 -0.30273242 20.62695312 -0.35839844 C23.61960084 -0.43786409 26.60972068 -0.47072232 29.60327148 -0.49414062 C30.98029991 -0.54362854 30.98029991 -0.54362854 32.38514709 -0.59411621 C38.68311885 -0.57473594 41.80134994 0.97121185 46.2776947 5.3951416 C47.11754662 6.30072815 47.11754662 6.30072815 47.97436523 7.22460938 C51.6592391 11.35589339 51.6592391 11.35589339 56.34155273 14.09960938 C59.61734496 15.49935442 61.43780104 17.35987569 63.91186523 19.91210938 C64.72526367 20.74097656 65.53866211 21.56984375 66.37670898 22.42382812 C67.23393555 23.34808594 68.09116211 24.27234375 68.97436523 25.22460938 C69.73881454 25.86685707 69.73881454 25.86685707 70.51870728 26.52207947 C74.53503969 30.27525895 75.41612162 33.325107 75.67138672 38.78662109 C75.67718427 41.41437347 75.65155244 44.02844219 75.59545898 46.65429688 C75.58679387 48.05435898 75.58065422 49.45443877 75.57691956 50.85452271 C75.55977091 54.52078394 75.50574869 58.18562468 75.44464111 61.85137939 C75.4008516 64.85507936 75.38345661 67.85866567 75.36736965 70.86262321 C75.34781569 74.43909644 75.31725036 78.01543738 75.28295898 81.59179688 C75.27653318 82.2761166 75.27010738 82.96043633 75.26348686 83.66549301 C75.24259799 85.59005677 75.21307687 87.5145211 75.18310547 89.43896484 C75.15929054 91.08274612 75.15929054 91.08274612 75.13499451 92.75973511 C74.97436523 95.22460938 74.97436523 95.22460938 73.97436523 96.22460938 C72.04674706 96.323818 70.11547169 96.35260302 68.18530273 96.35400391 C66.94731934 96.35715607 65.70933594 96.36030823 64.43383789 96.36355591 C63.07234665 96.36176613 61.71085572 96.35971517 60.34936523 96.35742188 C58.96313459 96.35809497 57.57690406 96.35906504 56.19067383 96.36032104 C53.28197102 96.36179777 50.37329886 96.35964427 47.46459961 96.35498047 C43.72839925 96.34928318 39.99227072 96.35256232 36.256073 96.35855293 C33.39257258 96.36215923 30.5290893 96.36101965 27.66558838 96.35842514 C26.28761792 96.35775606 24.90964592 96.35858364 23.53167725 96.36090469 C21.60892769 96.36343229 19.68617271 96.35889961 17.76342773 96.35400391 C16.11914795 96.35281052 16.11914795 96.35281052 14.44165039 96.35159302 C11.97436523 96.22460938 11.97436523 96.22460938 10.97436523 95.22460938 C10.9019247 93.20496739 10.89059335 91.18293814 10.91186523 89.16210938 C10.92088867 88.05738281 10.92991211 86.95265625 10.93920898 85.81445312 C10.95081055 84.95980469 10.96241211 84.10515625 10.97436523 83.22460938 C10.07073242 83.23621094 9.16709961 83.2478125 8.23608398 83.25976562 C7.0565918 83.26878906 5.87709961 83.2778125 4.66186523 83.28710938 C3.49010742 83.29871094 2.31834961 83.3103125 1.11108398 83.32226562 C-2.02563477 83.22460938 -2.02563477 83.22460938 -5.02563477 82.22460938 C-5.0487582 71.68079626 -5.06654985 61.13698913 -5.07744694 50.59315586 C-5.08267577 45.69775563 -5.08977341 40.8023727 -5.10107422 35.90698242 C-5.11190311 31.1867296 -5.1179116 26.46649345 -5.12051201 21.74622917 C-5.12236626 19.94121984 -5.12598686 18.13621146 -5.13136482 16.33120918 C-5.13857529 13.81201293 -5.13962571 11.29288647 -5.13916016 8.77368164 C-5.14275543 8.0198671 -5.14635071 7.26605255 -5.15005493 6.48939514 C-5.13725097 0.12850063 -5.13725097 0.12850063 0 0 Z " fill="#F8F9FA" transform="translate(14.025634765625,-0.224609375)"/>
<path d="M0 0 C13.86 0 27.72 0 42 0 C42.495 6.435 42.495 6.435 43 13 C33.76 13 24.52 13 15 13 C15 18.94 15 24.88 15 31 C13.02 31 11.04 31 9 31 C9 31.66 9 32.32 9 33 C10.98 33 12.96 33 15 33 C15 37.29 15 41.58 15 46 C13.02 46 11.04 46 9 46 C9 46.66 9 47.32 9 48 C10.98 48 12.96 48 15 48 C15 52.29 15 56.58 15 61 C13.02 61 11.04 61 9 61 C9 61.66 9 62.32 9 63 C10.98 63 12.96 63 15 63 C15 67.62 15 72.24 15 77 C10.05 77 5.1 77 0 77 C0 51.59 0 26.18 0 0 Z " fill="#FDFDFD" transform="translate(11,2)"/>
<path d="M0 0 C0.85501602 -0.02251831 1.71003204 -0.04503662 2.59095764 -0.0682373 C6.5302777 -0.1392241 10.46940219 -0.19683896 14.40917969 -0.23535156 C16.48200679 -0.26188686 18.55470371 -0.30273242 20.62695312 -0.35839844 C23.61960084 -0.43786409 26.60972068 -0.47072232 29.60327148 -0.49414062 C30.98029991 -0.54362854 30.98029991 -0.54362854 32.38514709 -0.59411621 C38.68311885 -0.57473594 41.80134994 0.97121185 46.2776947 5.3951416 C47.11754662 6.30072815 47.11754662 6.30072815 47.97436523 7.22460938 C51.6592391 11.35589339 51.6592391 11.35589339 56.34155273 14.09960938 C59.61734496 15.49935442 61.43780104 17.35987569 63.91186523 19.91210938 C64.72526367 20.74097656 65.53866211 21.56984375 66.37670898 22.42382812 C67.23393555 23.34808594 68.09116211 24.27234375 68.97436523 25.22460938 C69.73881454 25.86685707 69.73881454 25.86685707 70.51870728 26.52207947 C74.53503969 30.27525895 75.41612162 33.325107 75.67138672 38.78662109 C75.67718427 41.41437347 75.65155244 44.02844219 75.59545898 46.65429688 C75.58679387 48.05435898 75.58065422 49.45443877 75.57691956 50.85452271 C75.55977091 54.52078394 75.50574869 58.18562468 75.44464111 61.85137939 C75.4008516 64.85507936 75.38345661 67.85866567 75.36736965 70.86262321 C75.34781569 74.43909644 75.31725036 78.01543738 75.28295898 81.59179688 C75.27653318 82.2761166 75.27010738 82.96043633 75.26348686 83.66549301 C75.24259799 85.59005677 75.21307687 87.5145211 75.18310547 89.43896484 C75.15929054 91.08274612 75.15929054 91.08274612 75.13499451 92.75973511 C74.97436523 95.22460938 74.97436523 95.22460938 73.97436523 96.22460938 C72.04674706 96.323818 70.11547169 96.35260302 68.18530273 96.35400391 C66.94731934 96.35715607 65.70933594 96.36030823 64.43383789 96.36355591 C63.07234665 96.36176613 61.71085572 96.35971517 60.34936523 96.35742188 C58.96313459 96.35809497 57.57690406 96.35906504 56.19067383 96.36032104 C53.28197102 96.36179777 50.37329886 96.35964427 47.46459961 96.35498047 C43.72839925 96.34928318 39.99227072 96.35256232 36.256073 96.35855293 C33.39257258 96.36215923 30.5290893 96.36101965 27.66558838 96.35842514 C26.28761792 96.35775606 24.90964592 96.35858364 23.53167725 96.36090469 C21.60892769 96.36343229 19.68617271 96.35889961 17.76342773 96.35400391 C16.11914795 96.35281052 16.11914795 96.35281052 14.44165039 96.35159302 C11.97436523 96.22460938 11.97436523 96.22460938 10.97436523 95.22460938 C10.9019247 93.20496739 10.89059335 91.18293814 10.91186523 89.16210938 C10.92088867 88.05738281 10.92991211 86.95265625 10.93920898 85.81445312 C10.95081055 84.95980469 10.96241211 84.10515625 10.97436523 83.22460938 C10.07073242 83.23621094 9.16709961 83.2478125 8.23608398 83.25976562 C7.0565918 83.26878906 5.87709961 83.2778125 4.66186523 83.28710938 C3.49010742 83.29871094 2.31834961 83.3103125 1.11108398 83.32226562 C-2.02563477 83.22460938 -2.02563477 83.22460938 -5.02563477 82.22460938 C-5.0487582 71.68079626 -5.06654985 61.13698913 -5.07744694 50.59315586 C-5.08267577 45.69775563 -5.08977341 40.8023727 -5.10107422 35.90698242 C-5.11190311 31.1867296 -5.1179116 26.46649345 -5.12051201 21.74622917 C-5.12236626 19.94121984 -5.12598686 18.13621146 -5.13136482 16.33120918 C-5.13857529 13.81201293 -5.13962571 11.29288647 -5.13916016 8.77368164 C-5.14275543 8.0198671 -5.14635071 7.26605255 -5.15005493 6.48939514 C-5.13725097 0.12850063 -5.13725097 0.12850063 0 0 Z M-4.02563477 1.22460938 C-4.02563477 27.29460938 -4.02563477 53.36460938 -4.02563477 80.22460938 C1.25436523 80.22460938 6.53436523 80.22460938 11.97436523 80.22460938 C11.97436523 84.51460938 11.97436523 88.80460937 11.97436523 93.22460938 C31.77436523 93.22460938 51.57436523 93.22460938 71.97436523 93.22460938 C72.31225812 85.41552931 72.63200654 77.63351339 72.80236816 69.82345581 C72.88618011 66.18602724 72.9976024 62.5547641 73.18139648 58.92089844 C74.57092102 41.45047071 74.57092102 41.45047071 68.51733398 25.72460938 C64.19229327 20.95531533 59.37112566 16.48262342 53.26635742 14.22167969 C50.4650322 13.00303757 49.23441349 11.19808991 47.40130615 8.81817627 C43.58670343 4.09044407 40.1406946 1.0401639 33.97241211 0.2421875 C28.19541168 -0.09457236 22.50283363 0.17901547 16.72436523 0.47460938 C6.45311523 0.84585938 6.45311523 0.84585938 -4.02563477 1.22460938 Z " fill="#0C0C0C" transform="translate(14.025634765625,-0.224609375)"/>
<path d="M0 0 C6.826875 -0.268125 13.65375 -0.53625 20.6875 -0.8125 C22.81405029 -0.93085205 24.94060059 -1.0492041 27.1315918 -1.17114258 C35.8506864 -1.44713222 42.53850078 -1.49939185 49.17304993 4.70857239 C51.64705897 7.35608377 53.85998217 10.07450557 56 13 C45.16913243 20.22057838 30.01708279 15 17 15 C17 40.08 17 65.16 17 91 C36.47 91 55.94 91 76 91 C76 91.33 76 91.66 76 92 C56.2 92 36.4 92 16 92 C16 87.71 16 83.42 16 79 C10.72 79 5.44 79 0 79 C0 52.93 0 26.86 0 0 Z M1 1 C1 26.41 1 51.82 1 78 C5.95 78 10.9 78 16 78 C16 73.38 16 68.76 16 64 C14.02 64 12.04 64 10 64 C10 63.34 10 62.68 10 62 C11.98 62 13.96 62 16 62 C16 57.71 16 53.42 16 49 C14.02 49 12.04 49 10 49 C10 48.34 10 47.68 10 47 C11.98 47 13.96 47 16 47 C16 42.71 16 38.42 16 34 C14.02 34 12.04 34 10 34 C10 33.34 10 32.68 10 32 C11.98 32 13.96 32 16 32 C16 26.06 16 20.12 16 14 C25.24 14 34.48 14 44 14 C43.67 9.71 43.34 5.42 43 1 C29.14 1 15.28 1 1 1 Z " fill="#D1D3D4" transform="translate(10,1)"/>
<path d="M0 0 C0.33 0 0.66 0 1 0 C1 26.07 1 52.14 1 79 C6.28 79 11.56 79 17 79 C17 82.96 17 86.92 17 91 C16.67 91 16.34 91 16 91 C16 88.03 16 85.06 16 82 C15.09636719 82.01160156 14.19273438 82.02320312 13.26171875 82.03515625 C12.08222656 82.04417969 10.90273438 82.05320312 9.6875 82.0625 C8.51574219 82.07410156 7.34398437 82.08570312 6.13671875 82.09765625 C3 82 3 82 0 81 C0 54.27 0 27.54 0 0 Z " fill="#000000" transform="translate(9,1)"/>
<path d="M0 0 C6.03331362 4.98404168 11.5184171 10.41915303 17 16 C16.67 16.66 16.34 17.32 16 18 C14.06115111 17.71743908 12.12394039 17.4236207 10.1875 17.125 C9.10855469 16.96257813 8.02960938 16.80015625 6.91796875 16.6328125 C4 16 4 16 1 14 C0.48828125 10.7421875 0.48828125 10.7421875 0.3125 6.875 C0.24675781 5.59367187 0.18101563 4.31234375 0.11328125 2.9921875 C0.07589844 2.00476563 0.03851563 1.01734375 0 0 Z " fill="#D9D9D9" transform="translate(69,15)"/>
<path d="M0 0 C6.1196459 -0.17376678 12.23783909 -0.30040804 18.359375 -0.38452148 C20.43905672 -0.41960318 22.51856727 -0.46728314 24.59765625 -0.52807617 C27.59678451 -0.61353984 30.59362119 -0.6528106 33.59375 -0.68359375 C34.51490601 -0.71972275 35.43606201 -0.75585175 36.38513184 -0.79307556 C42.75716941 -0.79690263 45.86083554 0.77893615 50.36865234 5.27648926 C50.90699707 5.8452478 51.4453418 6.41400635 52 7 C52.8353125 7.73089844 53.670625 8.46179688 54.53125 9.21484375 C56.35416667 10.80989583 58.17708333 12.40494792 60 14 C58.15312195 14.66874695 58.15312195 14.66874695 56 15 C54.68037304 13.54571454 53.37400543 12.07553732 52.16227722 10.53019714 C48.13836902 5.53084508 44.42306933 1.85917459 37.91162109 0.82958984 C32.1661445 0.34636714 26.44336594 0.50188816 20.6875 0.6875 C18.67517179 0.70452477 16.66278448 0.71563824 14.65039062 0.72070312 C9.76357793 0.74570099 4.88452411 0.85049652 0 1 C0 0.67 0 0.34 0 0 Z " fill="#000000" transform="translate(10,0)"/>
<path d="M0 0 C2.31 0.66 4.62 1.32 7 2 C7.33 3.65 7.66 5.3 8 7 C5.36 7 2.72 7 0 7 C0 4.69 0 2.38 0 0 Z " fill="#F0F0F0" transform="translate(72,22)"/>
<path d="M0 0 C3.4375 1.25 3.4375 1.25 7 3 C7.9375 5.1875 7.9375 5.1875 8 7 C5.36 7 2.72 7 0 7 C0 4.69 0 2.38 0 0 Z " fill="#F9F9F9" transform="translate(55,8)"/>
<path d="M0 0 C2.31 1.98 4.62 3.96 7 6 C6.67 6.66 6.34 7.32 6 8 C2.37 7.01 -1.26 6.02 -5 5 C-5 4.67 -5 4.34 -5 4 C-3.02 4 -1.04 4 1 4 C0.67 2.68 0.34 1.36 0 0 Z " fill="#C0C0C0" transform="translate(79,25)"/>
<path d="M0 0 C2.31 1.98 4.62 3.96 7 6 C3.89448334 6 2.64738916 5.4606285 0 4 C0 2.68 0 1.36 0 0 Z " fill="#B9B9B9" transform="translate(53,2)"/>
</svg>
